FOR ENGLISH, PLEASE SCROLL DOWN!


~~~~~~~~~~~~~~~~~~~~~~~~~~~~~~~~~~~~~~~~~~~~~~~~~~~~~~~~~
Lost Girl - Seizoen 1

VERHAALLIJN:
¯¯¯¯¯¯¯¯¯¯¯¯
Lost Girl richt zich rondom de beeldschone en charismatische Bo, een bovennatuurlijk wezen genoemt een \'succubus\' die zich voedt met de energie van mensen, soms met fatale afloop. Weigerend om haar bovennatuurlijke clan te omarmen en zijn starre hiërarchie, is Bo een afvallige die de strijd opneemt voor de underdog terwijl ze op zoek gaat naar de waarheid over haar mysterieuze afkomst.
~~~~~~~~~~~~~~~~~~~~~~~~~~~~~~~~~~~~~~~~~~~~~~~~~~~~~~~~~
Ondertitelingen: Engels & Nederlands - custom (eventueel selecteren via je mediaspeler)
Menu: Nee.
Covers: Nee.
Genre : Drama | Fantasy.

IMDb: http://www.imdb.com/title/tt1429449/
Officiële website: http://lostgirlseries.com/

~~~~~~~~~~~~~~~~~~~~~~~~~~~~~~~~~~~~~~~~~~~~~~~~~~~~~~~~~
Lost Girl - Season 1

PLOT:
¯¯¯¯¯
Lost Girl focuses on the gorgeous and charismatic Bo, a supernatural being called a succubus who feeds on the energy of humans, sometimes with fatal results. Refusing to embrace her supernatural clan and its rigid hierarchy, Bo is a renegade who takes up the fight for the underdog while searching for the truth about her own mysterious origins.

~~~~~~~~~~~~~~~~~~~~~~~~~~~~~~~~~~~~~~~~~~~~~~~~~~~~~~~~~
Subtiteles: English and Dutch - custom (eventueel selecteren via je mediaspeler)
Menu: No
Covers: No.
Genre : Drama | Fantasy.

IMDb: http://www.imdb.com/title/tt1429449/
Official website: http://lostgirlseries.com/
~~~~~~~~~~~~~~~~~~~~~~~~~~~~~~~~~~~~~~~~~~~~~~~~~~~~~~~~~
VIDEO AND AUDIO INFORMATION
¯¯¯¯¯¯¯¯¯¯¯¯¯¯¯¯¯¯¯¯¯¯¯¯¯¯¯¯¯¯
Format                           : AVI
Format/Info                      : Audio Video Interleave
File size                        : 350 MiB
Duration                         : 43mn 11s
Overall bit rate                 : 1 132 Kbps
Writing application              : MEncoder dev-SVN-r26940
Writing library                  : MPlayer

Video
ID                               : 0
Format                           : MPEG-4 Visual
Format profile                   : Advanced Simple@L5
Format settings, BVOP            : Yes
Format settings, QPel            : No
Format settings, GMC             : No warppoints
Format settings, Matrix          : Default (H.263)
Muxing mode                      : Packed bitstream
Codec ID                         : XVID
Codec ID/Hint                    : XviD
Duration                         : 43mn 11s
Bit rate                         : 991 Kbps
Width                            : 624 pixels
Height                           : 352 pixels
Display aspect ratio             : 16:9
Frame rate                       : 23.976 fps
Color space                      : YUV
Chroma subsampling               : 4:2:0
Bit depth                        : 8 bits
Scan type                        : Progressive
Bits/(Pixel*Frame)               : 0.188
Stream size                      : 306 MiB (88%)
Writing library                  : XviD 1.2.1 (UTC 2008-12-04)

Audio
ID                               : 1
Format                           : MPEG Audio
Format version                   : Version 1
Format profile                   : Layer 3
Mode                             : Joint stereo
Mode extension                   : MS Stereo
Codec ID                         : 55
Codec ID/Hint                    : MP3
Duration                         : 43mn 11s
Bit rate mode                    : Variable
Bit rate                         : 128 Kbps
Channel(s)                       : 2 channels
Sampling rate                    : 48.0 KHz
Stream size                      : 39.5 MiB (11%)
Alignment                        : Aligned on interleaves
Interleave, duration             : 24 ms (0.58 video frame)
Interleave, preload duration     : 528 ms


*****************************************

Brought to you by
2Lions Team

Meer zien??
Kom dan eens kijken op ons forum
 
http://www.2lions-site.nl

2Lions the site to be for all your Dutch MOVIES and more

******************************************